<svg width="126" height="350" viewBox="0 0 126 350" fill="none" xmlns="http://www.w3.org/2000/svg">
<path d="M109.355 8C109.355 12.4183 112.937 16 117.355 16C121.773 16 125.355 12.4183 125.355 8C125.355 3.58172 121.773 0 117.355 0C112.937 0 109.355 3.58172 109.355 8ZM2 140.211H0.5H2ZM56.1667 350L65.0245 335.116L47.7055 334.887L56.1667 350ZM58.0229 341.146C58.186 339.151 58.403 337.204 58.6694 335.302L55.6985 334.885C55.424 336.845 55.2006 338.849 55.0328 340.901L58.0229 341.146ZM59.6566 329.508C60.0511 327.547 60.4984 325.635 60.9928 323.767L58.0926 322.999C57.5831 324.924 57.1222 326.895 56.7155 328.917L59.6566 329.508ZM62.6676 318.124C63.2891 316.236 63.9573 314.394 64.6658 312.593L61.8741 311.495C61.1457 313.346 60.458 315.242 59.818 317.186L62.6676 318.124ZM66.973 307.162C67.7976 305.353 68.6596 303.585 69.5513 301.851L66.8836 300.479C65.9719 302.251 65.0891 304.062 64.2433 305.917L66.973 307.162ZM72.3648 296.652C73.3471 294.918 74.3533 293.217 75.375 291.543L72.814 289.98C71.778 291.678 70.7552 293.407 69.7548 295.173L72.3648 296.652ZM78.5295 286.513C79.611 284.828 80.6993 283.167 81.7859 281.52L79.282 279.868C78.1919 281.52 77.096 283.193 76.005 284.892L78.5295 286.513ZM85.0824 276.541C86.1931 274.862 87.2915 273.191 88.3654 271.524L85.8434 269.899C84.7792 271.551 83.6883 273.21 82.5801 274.886L85.0824 276.541ZM91.5624 266.429C92.6145 264.697 93.6292 262.96 94.5936 261.209L91.966 259.762C91.0257 261.468 90.0329 263.169 88.9985 264.871L91.5624 266.429ZM97.3689 255.815C98.2428 253.976 99.05 252.115 99.7761 250.222L96.9752 249.148C96.2797 250.961 95.5039 252.751 94.6595 254.526L97.3689 255.815ZM101.703 244.42C102.248 242.469 102.699 240.478 103.042 238.441L100.084 237.944C99.7594 239.871 99.332 241.758 98.8137 243.612L101.703 244.42ZM103.724 232.341C103.78 231.327 103.809 230.301 103.809 229.262H100.809C100.809 230.245 100.781 231.216 100.728 232.174L103.724 232.341ZM103.809 229.262C103.809 228.172 103.764 227.111 103.677 226.078L100.688 226.331C100.768 227.277 100.809 228.254 100.809 229.262H103.809ZM102.562 219.891C101.964 217.791 101.162 215.832 100.177 213.998L97.5338 215.417C98.4178 217.063 99.1387 218.822 99.6769 220.712L102.562 219.891ZM96.6181 208.766C95.2847 207.175 93.797 205.701 92.1812 204.327L90.2378 206.612C91.7394 207.889 93.1051 209.245 94.3187 210.693L96.6181 208.766ZM87.1723 200.615C85.4828 199.515 83.7032 198.483 81.8522 197.506L80.4519 200.159C82.2343 201.1 83.9334 202.086 85.5351 203.129L87.1723 200.615ZM76.3255 194.827C74.493 194.006 72.6106 193.221 70.6928 192.462L69.5881 195.251C71.4733 195.997 73.3144 196.766 75.0995 197.565L76.3255 194.827ZM65.0112 190.31C63.1252 189.623 61.2165 188.949 59.2984 188.281L58.3122 191.115C60.223 191.78 62.1168 192.448 63.9842 193.128L65.0112 190.31ZM53.5841 186.307C51.6824 185.65 49.7829 184.992 47.8938 184.321L46.8909 187.149C48.7924 187.823 50.7018 188.486 52.6053 189.143L53.5841 186.307ZM42.246 182.26C40.3602 181.549 38.4987 180.817 36.672 180.059L35.521 182.829C37.3837 183.603 39.2764 184.346 41.1865 185.067L42.246 182.26ZM31.2151 177.647C29.3986 176.788 27.6342 175.892 25.9338 174.948L24.4776 177.571C26.2429 178.551 28.0664 179.477 29.9337 180.359L31.2151 177.647ZM20.8864 171.862C19.2374 170.747 17.6765 169.569 16.2171 168.318L14.2645 170.595C15.8197 171.929 17.4727 173.175 19.2057 174.347L20.8864 171.862ZM12.0731 164.239C10.7993 162.786 9.64676 161.244 8.62993 159.599L6.07839 161.177C7.1876 162.971 8.44052 164.647 9.81736 166.217L12.0731 164.239ZM6.03801 154.443C5.35104 152.711 4.79212 150.875 4.3754 148.923L1.44149 149.549C1.89256 151.662 2.49963 153.659 3.24938 155.549L6.03801 154.443ZM3.59421 143.182C3.53186 142.217 3.5 141.227 3.5 140.211H0.5C0.500003 141.29 0.533824 142.345 0.600451 143.376L3.59421 143.182ZM3.5 140.211C3.5 139.234 3.5358 138.281 3.60586 137.351L0.614339 137.126C0.538486 138.132 0.499997 139.16 0.5 140.211H3.5ZM4.47465 131.834C4.92796 129.988 5.53309 128.236 6.27673 126.566L3.53608 125.345C2.72073 127.177 2.05745 129.098 1.56119 131.119L4.47465 131.834ZM8.98712 121.673C10.0176 120.134 11.1801 118.662 12.4634 117.248L10.2414 115.232C8.86831 116.746 7.6133 118.332 6.49412 120.004L8.98712 121.673ZM16.5327 113.278C17.9391 112.051 19.4394 110.866 21.0236 109.714L19.2593 107.288C17.6129 108.485 16.0421 109.725 14.5607 111.017L16.5327 113.278ZM25.7876 106.494C27.3847 105.484 29.0421 104.497 30.7517 103.524L29.2684 100.917C27.525 101.908 25.8269 102.92 24.1846 103.958L25.7876 106.494ZM35.8502 100.738C37.5443 99.8451 39.2753 98.9599 41.0364 98.0762L39.691 95.3949C37.9167 96.2851 36.1672 97.1798 34.451 98.0846L35.8502 100.738ZM46.2762 95.4857C48.0152 94.6354 49.771 93.7831 51.5431 92.9203L50.2299 90.223C48.462 91.0837 46.7004 91.9388 44.9584 92.7906L46.2762 95.4857ZM56.8147 90.3381C58.5627 89.4739 60.317 88.596 62.0704 87.6997L60.705 85.0284C58.9665 85.9171 57.2246 86.7888 55.4851 87.6488L56.8147 90.3381ZM67.2898 84.9678C69.0189 84.0387 70.7414 83.0864 72.4507 82.106L70.958 79.5036C69.2758 80.4685 67.5778 81.4074 65.8698 82.3251L67.2898 84.9678ZM77.5281 79.0783C79.2045 78.037 80.8616 76.9624 82.4931 75.8497L80.8027 73.3713C79.2097 74.4578 77.5885 75.5091 75.9451 76.53L77.5281 79.0783ZM87.3113 72.3864C88.8893 71.1887 90.4352 69.9475 91.9424 68.6576L89.9917 66.3784C88.5321 67.6275 87.0322 68.8321 85.4976 69.9967L87.3113 72.3864ZM96.3398 64.638C97.7579 63.2507 99.1309 61.81 100.452 60.311L98.2018 58.3272C96.9316 59.7681 95.6097 61.1553 94.2418 62.4936L96.3398 64.638ZM104.224 55.6752C105.409 54.0924 106.538 52.4497 107.604 50.7425L105.06 49.1527C104.039 50.7867 102.958 52.3601 101.822 53.8774L104.224 55.6752ZM110.552 45.5406C111.446 43.7931 112.277 41.984 113.041 40.1095L110.263 38.9768C109.531 40.7718 108.736 42.5033 107.881 44.1752L110.552 45.5406ZM115.063 34.4936C115.648 32.6335 116.171 30.7146 116.628 28.7339L113.704 28.06C113.265 29.9655 112.763 31.809 112.201 33.5938L115.063 34.4936ZM117.756 22.8609C118.055 20.9371 118.295 18.9595 118.473 16.9259L115.485 16.6633C115.312 18.6323 115.08 20.544 114.791 22.4006L117.756 22.8609ZM118.812 11.0393C118.841 10.0389 118.855 9.02593 118.855 8H115.855C115.855 8.99804 115.841 9.98275 115.813 10.9544L118.812 11.0393Z" fill="#1FAD58"/>
</svg>
