<svg width="95" height="164" viewBox="0 0 95 164" fill="none" xmlns="http://www.w3.org/2000/svg">
<path d="M76.1371 6C76.1371 8.94552 73.7493 11.3333 70.8038 11.3333C67.8582 11.3333 65.4704 8.94552 65.4704 6C65.4704 3.05448 67.8582 0.666667 70.8038 0.666667C73.7493 0.666667 76.1371 3.05448 76.1371 6ZM2.53581 96.5071L3.51709 96.3145L2.53581 96.5071ZM95 158L84.9048 163.605L85.098 152.06L95 158ZM84.918 158.521C82.7472 158.322 80.5135 158.058 78.2337 157.725L78.5228 155.746C80.7674 156.074 82.9655 156.334 85.1008 156.529L84.918 158.521ZM71.6007 156.579C69.434 156.147 67.2411 155.652 65.0349 155.091L65.5279 153.153C67.6995 153.705 69.8585 154.192 71.992 154.618L71.6007 156.579ZM58.5591 153.258C56.434 152.594 54.308 151.866 52.1925 151.07L52.8965 149.198C54.9753 149.98 57.0654 150.696 59.1557 151.349L58.5591 153.258ZM45.9599 148.51C43.9146 147.595 41.8901 146.612 39.8971 145.557L40.8324 143.789C42.7848 144.822 44.7697 145.786 46.7766 146.684L45.9599 148.51ZM34.0479 142.192C32.1412 141 30.2761 139.735 28.4633 138.393L29.6533 136.786C31.422 138.095 33.2436 139.331 35.1079 140.496L34.0479 142.192ZM23.2044 134.144C21.5171 132.655 19.8921 131.088 18.34 129.438L19.7966 128.067C21.3047 129.67 22.885 131.195 24.5277 132.645L23.2044 134.144ZM13.9468 124.284C12.5798 122.508 11.2928 120.651 10.096 118.71L11.7983 117.66C12.9581 119.541 14.2057 121.342 15.5317 123.064L13.9468 124.284ZM6.84452 112.757C5.88273 110.752 5.01163 108.668 4.23963 106.505L6.12326 105.833C6.87177 107.93 7.71604 109.949 8.64788 111.892L6.84452 112.757ZM2.2892 100.018C2.02039 98.9302 1.77522 97.824 1.55453 96.6997L3.51709 96.3145C3.73159 97.4073 3.9698 98.482 4.23084 99.5388L2.2892 100.018ZM1.55453 96.6997C1.32109 95.5103 1.11469 94.326 0.93483 93.147L2.91195 92.8453C3.08752 93.9962 3.28906 95.1527 3.51709 96.3145L1.55453 96.6997ZM0.160202 85.9876C0.00583649 83.5601 -0.0358734 81.1604 0.0303192 78.7924L2.02953 78.8483C1.96506 81.1551 2.00566 83.4938 2.15617 85.8607L0.160202 85.9876ZM0.569916 71.6061C0.866119 69.1971 1.27541 66.8277 1.79226 64.5021L3.74462 64.9361C3.24169 67.199 2.84332 69.5051 2.55497 71.8502L0.569916 71.6061ZM3.69594 57.5513C4.44718 55.254 5.30635 53.0083 6.26734 50.819L8.09868 51.6229C7.16368 53.753 6.32777 55.9379 5.59688 58.1729L3.69594 57.5513ZM9.48144 44.3686C10.6593 42.2668 11.9356 40.2283 13.304 38.2581L14.9467 39.399C13.6146 41.3168 12.3724 43.3009 11.2262 45.3463L9.48144 44.3686ZM17.692 32.5424C19.2435 30.7085 20.8813 28.9484 22.5988 27.2673L23.9978 28.6966C22.3248 30.3342 20.7297 32.0484 19.2188 33.8342L17.692 32.5424ZM27.975 22.473C29.836 20.962 31.7695 19.5341 33.7693 18.1943L34.8825 19.8558C32.9334 21.1617 31.049 22.5533 29.2357 24.0256L27.975 22.473ZM39.9293 14.4613C42.0293 13.3156 44.1878 12.2606 46.3987 11.3013L47.1948 13.136C45.039 14.0714 42.9345 15.1 40.8872 16.217L39.9293 14.4613ZM53.125 8.73422C55.3917 7.9833 57.703 7.32918 60.0533 6.77642L60.5112 8.72329C58.2188 9.26246 55.9645 9.90044 53.7539 10.6328L53.125 8.73422ZM67.1289 5.43902C68.3133 5.26881 69.5055 5.12392 70.705 5.00489L70.9025 6.99511C69.7321 7.11125 68.5689 7.25262 67.4134 7.41868L67.1289 5.43902Z" fill="#1FAD58"/>
</svg>
