<svg width="98" height="98" viewBox="0 0 98 98" fill="none" xmlns="http://www.w3.org/2000/svg">
<path d="M50.4634 25.3071L51.6724 29.256C51.8687 29.9118 52.3065 30.468 52.897 30.8115C53.4874 31.1549 54.1861 31.2598 54.8509 31.1049L58.8223 30.1788C59.5782 30.0082 60.3686 30.0848 61.0778 30.3976C61.787 30.7103 62.3778 31.2427 62.7637 31.9167C63.1495 32.5907 63.3101 33.371 63.222 34.1432C63.1338 34.9155 62.8016 35.6391 62.2738 36.2082L59.4821 39.2245C59.0184 39.7291 58.761 40.3903 58.761 41.0766C58.761 41.763 59.0184 42.4242 59.4821 42.9288L62.2738 45.9451C62.8016 46.5142 63.1338 47.2378 63.222 48.01C63.3101 48.7823 63.1495 49.5626 62.7637 50.2366C62.3778 50.9106 61.787 51.443 61.0778 51.7557C60.3686 52.0684 59.5782 52.1451 58.8223 51.9745L54.8346 51.0484C54.1698 50.8934 53.4712 50.9983 52.8807 51.3418C52.2903 51.6852 51.8524 52.2414 51.6561 52.8973L50.4569 56.8462C50.2328 57.5893 49.7764 58.2403 49.1552 58.703C48.5339 59.1656 47.7807 59.4155 47.007 59.4155C46.2333 59.4155 45.4801 59.1656 44.8588 58.703C44.2375 58.2403 43.7811 57.5893 43.5571 56.8462L42.3579 52.8973C42.1616 52.2414 41.7237 51.6852 41.1332 51.3418C40.5428 50.9983 39.8441 50.8934 39.1793 51.0484L35.1916 51.9745C34.436 52.1446 33.6459 52.0673 32.9373 51.7541C32.2286 51.4408 31.6386 50.9081 31.2537 50.2338C30.8688 49.5596 30.7093 48.7794 30.7986 48.0076C30.8879 47.2358 31.2213 46.513 31.7498 45.9451L34.5383 42.9288C35.0034 42.4249 35.2618 41.7634 35.2618 41.0766C35.2618 40.3899 35.0034 39.7284 34.5383 39.2245L31.7498 36.2082C31.2202 35.64 30.8862 34.9164 30.7969 34.1436C30.7075 33.3709 30.8675 32.5897 31.2534 31.915C31.6393 31.2403 32.2307 30.7075 32.9407 30.395C33.6508 30.0825 34.442 30.0067 35.1981 30.1788L39.1859 31.1049C39.8506 31.2598 40.5493 31.1549 41.1397 30.8115C41.7302 30.468 42.1681 29.9118 42.3644 29.256L43.5636 25.3071C43.7876 24.564 44.244 23.913 44.8653 23.4503C45.4866 22.9876 46.2398 22.7378 47.0135 22.7378C47.7872 22.7378 48.5404 22.9876 49.1617 23.4503C49.7829 23.913 50.2393 24.564 50.4634 25.3071Z" fill="#10100F"/>
<path d="M45.4827 11.5C38.7994 11.4933 32.2855 13.6089 26.8738 17.5437C21.4622 21.4786 17.4304 27.0309 15.3561 33.4053C13.2818 39.7798 13.2713 46.6494 15.3261 53.0302C17.3809 59.411 21.3956 64.9757 26.7952 68.9272V86.5H47.7396V76.7174H62.9124C65.4983 76.7174 67.9782 75.6867 69.8067 73.8521C71.6352 72.0176 72.6624 69.5293 72.6624 66.9348V57.1522H83.6702C76.5397 35.6826 72.4544 11.5 45.4827 11.5Z" stroke="black" stroke-width="3" stroke-linecap="round" stroke-linejoin="round"/>
<path d="M47.0149 45.1527C49.2585 45.1527 51.0774 43.3277 51.0774 41.0766C51.0774 38.8254 49.2585 37.0005 47.0149 37.0005C44.7712 37.0005 42.9524 38.8254 42.9524 41.0766C42.9524 43.3277 44.7712 45.1527 47.0149 45.1527Z" fill="#1FAD58"/>
</svg>
