<svg width="98" height="98" viewBox="0 0 98 98" fill="none" xmlns="http://www.w3.org/2000/svg">
<g clip-path="url(#clip0_512_1766)">
<path d="M66.4333 90.4961V78.2927C73.4504 78.3322 77.0219 77.8251 79.4856 75.3578C82.6363 72.2071 82.3377 58.9067 82.3377 58.9067C82.3377 58.9067 85.3337 59.0182 87.596 58.9283C87.9919 58.9121 88.379 58.8066 88.7284 58.6198C89.0778 58.4329 89.3805 58.1695 89.6138 57.8493C89.9352 57.1605 90.0596 56.3961 89.9734 55.6409C90.3834 50.0014 82.442 40.3264 82.442 37.5174C82.442 19.8578 65.768 9.76562 50.6296 9.76562" stroke="black" stroke-width="3" stroke-linecap="round" stroke-linejoin="round"/>
<path d="M31.3337 78.21V90.4961" stroke="black" stroke-width="3" stroke-linecap="round" stroke-linejoin="round"/>
<path d="M33.8372 69.4341C40.6227 69.4341 46.1234 56.0769 46.1234 39.5999C46.1234 23.1229 40.6227 9.76562 33.8372 9.76562C27.0517 9.76562 21.551 23.1229 21.551 39.5999C21.551 56.0769 27.0517 69.4341 33.8372 69.4341Z" stroke="#1FAD58" stroke-width="3" stroke-linecap="round" stroke-linejoin="round"/>
<path d="M39.9806 50.2381C54.2501 41.9996 63.0674 30.5573 59.6747 24.6809C56.2819 18.8045 41.9639 20.7194 27.6944 28.9579C13.4249 37.1964 4.60753 48.6387 8.00026 54.5151C11.393 60.3915 25.7111 58.4766 39.9806 50.2381Z" stroke="#1FAD58" stroke-width="3" stroke-linecap="round" stroke-linejoin="round"/>
<path d="M59.673 54.5173C63.0657 48.641 54.2483 37.1986 39.9788 28.9601C25.7093 20.7216 11.3913 18.8067 7.99855 24.6831C4.60582 30.5595 13.4232 42.0019 27.6927 50.2404C41.9622 58.4789 56.2802 60.3937 59.673 54.5173Z" stroke="#1FAD58" stroke-width="3" stroke-linecap="round" stroke-linejoin="round"/>
<path d="M33.8372 38.7046C34.0756 38.7046 34.3043 38.7993 34.473 38.9679C34.6416 39.1366 34.7363 39.3653 34.7363 39.6038" stroke="#1FAD58" stroke-width="3" stroke-linecap="round" stroke-linejoin="round"/>
<path d="M32.938 39.6003C32.938 39.3619 33.0327 39.1332 33.2013 38.9645C33.37 38.7959 33.5987 38.7012 33.8372 38.7012" stroke="#1FAD58" stroke-width="3" stroke-linecap="round" stroke-linejoin="round"/>
<path d="M33.8372 40.5032C33.7189 40.5036 33.6018 40.4807 33.4925 40.4357C33.3832 40.3907 33.2839 40.3245 33.2003 40.2409C33.1167 40.1573 33.0505 40.058 33.0055 39.9487C32.9605 39.8394 32.9375 39.7222 32.938 39.604" stroke="#1FAD58" stroke-width="3" stroke-linecap="round" stroke-linejoin="round"/>
<path d="M34.7363 39.6006C34.7368 39.7188 34.7139 39.8359 34.6688 39.9452C34.6238 40.0545 34.5576 40.1539 34.474 40.2375C34.3904 40.321 34.2911 40.3873 34.1818 40.4323C34.0725 40.4773 33.9554 40.5002 33.8372 40.4997" stroke="#1FAD58" stroke-width="3" stroke-linecap="round" stroke-linejoin="round"/>
</g>
<defs>
<clipPath id="clip0_512_1766">
<rect width="98" height="98" fill="white"/>
</clipPath>
</defs>
</svg>
