<svg width="444" height="165" viewBox="0 0 444 165" fill="none" xmlns="http://www.w3.org/2000/svg">
<g clip-path="url(#clip0_203_16)">
<path d="M12.7363 16.9086L6.96283 22.6821L12.7363 28.4556L18.5098 22.6821L12.7363 16.9086ZM438.736 15.6819L428.706 9.96046L428.766 21.5073L438.736 15.6819ZM11.7774 26.1577C11.7904 26.7098 12.2486 27.1468 12.8007 27.1338C13.3528 27.1208 13.7898 26.6626 13.7768 26.1105L11.7774 26.1577ZM14.1021 32.9721C14.0628 32.4212 13.5844 32.0064 13.0335 32.0457C12.4826 32.085 12.0679 32.5635 12.1072 33.1143L14.1021 32.9721ZM12.7695 40.0481C12.8353 40.5965 13.3332 40.9877 13.8815 40.9219C14.4299 40.8561 14.8211 40.3583 14.7553 39.8099L12.7695 40.0481ZM15.7399 46.607C15.6473 46.0625 15.1308 45.6963 14.5864 45.7889C14.0419 45.8815 13.6756 46.3979 13.7682 46.9424L15.7399 46.607ZM15.1074 53.7771C15.2272 54.3162 15.7614 54.6561 16.3005 54.5363C16.8397 54.4165 17.1796 53.8823 17.0598 53.3432L15.1074 53.7771ZM18.7202 60.0022C18.5727 59.4699 18.0217 59.158 17.4895 59.3054C16.9572 59.4529 16.6453 60.0039 16.7928 60.5361L18.7202 60.0022ZM18.8298 67.1995C19.0053 67.7231 19.5721 68.0054 20.0957 67.8299C20.6194 67.6544 20.9016 67.0876 20.7261 66.564L18.8298 67.1995ZM23.0822 73.0067C22.8783 72.4935 22.2969 72.2426 21.7837 72.4465C21.2704 72.6504 21.0196 73.2317 21.2234 73.745L23.0822 73.0067ZM23.9775 80.1491C24.21 80.6501 24.8045 80.8677 25.3055 80.6353C25.8065 80.4028 26.0241 79.8082 25.7917 79.3072L23.9775 80.1491ZM28.8564 85.441C28.5952 84.9544 27.989 84.7716 27.5024 85.0327C27.0157 85.2939 26.8329 85.9001 27.0941 86.3867L28.8564 85.441ZM30.573 92.4318C30.8626 92.902 31.4787 93.0484 31.9489 92.7587C32.4191 92.4691 32.5655 91.8531 32.2758 91.3828L30.573 92.4318ZM36.0465 97.1069C35.7288 96.6552 35.105 96.5467 34.6533 96.8645C34.2016 97.1822 34.093 97.806 34.4108 98.2577L36.0465 97.1069ZM38.6005 103.838C38.9456 104.269 39.5749 104.339 40.0061 103.994C40.4372 103.648 40.5069 103.019 40.1617 102.588L38.6005 103.838ZM44.6108 107.801C44.2392 107.393 43.6068 107.363 43.1981 107.734C42.7895 108.106 42.7594 108.738 43.1309 109.147L44.6108 107.801ZM47.9869 114.161C48.3834 114.545 49.0165 114.535 49.4009 114.139C49.7853 113.742 49.7755 113.109 49.379 112.725L47.9869 114.161ZM54.4461 117.337C54.0262 116.978 53.3949 117.028 53.0362 117.448C52.6774 117.868 52.727 118.499 53.1468 118.858L54.4461 117.337ZM58.5894 123.222C59.0308 123.554 59.6577 123.465 59.9897 123.024C60.3217 122.583 60.233 121.956 59.7917 121.624L58.5894 123.222ZM65.3932 125.575C64.9324 125.27 64.312 125.397 64.0075 125.858C63.7031 126.319 63.8298 126.939 64.2906 127.243L65.3932 125.575ZM70.2235 130.914C70.7016 131.191 71.3133 131.027 71.5899 130.549C71.8664 130.071 71.7031 129.459 71.2251 129.183L70.2235 130.914ZM77.2536 132.442C76.7605 132.193 76.1592 132.392 75.9105 132.885C75.6618 133.378 75.8599 133.979 76.3531 134.228L77.2536 132.442ZM82.6549 137.189C83.161 137.411 83.7505 137.18 83.9716 136.673C84.1927 136.167 83.9618 135.578 83.4557 135.357L82.6549 137.189ZM89.8064 137.933C89.2894 137.739 88.7128 138.001 88.5186 138.518C88.3244 139.035 88.5862 139.611 89.1032 139.806L89.8064 137.933ZM95.6751 142.086C96.2012 142.254 96.7639 141.964 96.932 141.438C97.1 140.912 96.8098 140.349 96.2837 140.181L95.6751 142.086ZM102.869 142.112C102.335 141.969 101.787 142.286 101.644 142.819C101.501 143.353 101.818 143.901 102.351 144.044L102.869 142.112ZM109.117 145.693C109.656 145.812 110.19 145.471 110.308 144.932C110.427 144.393 110.086 143.859 109.547 143.74L109.117 145.693ZM116.307 145.079C115.763 144.983 115.245 145.346 115.149 145.89C115.053 146.434 115.416 146.953 115.96 147.049L116.307 145.079ZM122.83 148.119C123.377 148.193 123.881 147.809 123.955 147.262C124.029 146.715 123.646 146.211 123.099 146.137L122.83 148.119ZM129.905 146.93C129.356 146.877 128.867 147.279 128.813 147.828C128.759 148.378 129.161 148.867 129.71 148.921L129.905 146.93ZM136.637 149.476C137.188 149.511 137.663 149.092 137.698 148.541C137.732 147.99 137.314 147.515 136.762 147.48L136.637 149.476ZM143.672 147.798C143.12 147.781 142.659 148.216 142.642 148.768C142.626 149.32 143.06 149.781 143.612 149.797L143.672 147.798ZM150.529 149.894C151.082 149.894 151.529 149.445 151.528 148.893C151.528 148.341 151.079 147.894 150.527 147.894L150.529 149.894ZM157.399 147.786C156.847 147.802 156.413 148.263 156.429 148.815C156.446 149.367 156.907 149.801 157.459 149.785L157.399 147.786ZM164.437 149.478C164.989 149.446 165.41 148.973 165.378 148.422C165.346 147.871 164.873 147.449 164.322 147.481L164.437 149.478ZM171.157 146.999C170.606 147.045 170.197 147.528 170.243 148.078C170.289 148.629 170.772 149.038 171.323 148.992L171.157 146.999ZM178.385 148.301C178.934 148.237 179.327 147.74 179.263 147.192C179.199 146.643 178.702 146.25 178.154 146.314L178.385 148.301ZM184.932 145.383C184.387 145.469 184.015 145.982 184.102 146.527C184.189 147.073 184.701 147.445 185.247 147.358L184.932 145.383ZM192.182 146.091C192.723 145.979 193.071 145.45 192.959 144.909C192.847 144.369 192.318 144.021 191.777 144.133L192.182 146.091ZM198.482 142.575C197.948 142.713 197.626 143.259 197.764 143.794C197.903 144.328 198.448 144.65 198.983 144.511L198.482 142.575ZM205.665 142.599C206.192 142.434 206.485 141.872 206.319 141.345C206.153 140.819 205.592 140.526 205.065 140.692L205.665 142.599ZM211.605 138.437C211.088 138.631 210.826 139.208 211.021 139.725C211.215 140.241 211.792 140.503 212.309 140.309L211.605 138.437ZM218.799 137.658C219.304 137.434 219.533 136.844 219.309 136.339C219.086 135.834 218.496 135.605 217.991 135.828L218.799 137.658ZM224.202 132.87C223.71 133.122 223.516 133.724 223.767 134.216C224.019 134.707 224.621 134.902 225.113 134.651L224.202 132.87ZM231.242 131.294C231.719 131.015 231.879 130.403 231.6 129.926C231.322 129.449 230.709 129.289 230.232 129.568L231.242 131.294ZM236.076 125.935C235.614 126.239 235.487 126.86 235.791 127.321C236.095 127.782 236.715 127.909 237.176 127.605L236.076 125.935ZM242.921 123.602C243.367 123.275 243.462 122.649 243.135 122.204C242.808 121.759 242.182 121.663 241.737 121.99L242.921 123.602ZM247.202 117.775C246.773 118.122 246.706 118.751 247.053 119.181C247.4 119.61 248.03 119.677 248.459 119.33L247.202 117.775ZM253.8 114.83C254.216 114.466 254.257 113.834 253.893 113.419C253.529 113.003 252.897 112.962 252.482 113.326L253.8 114.83ZM257.596 108.68C257.194 109.058 257.174 109.691 257.552 110.094C257.93 110.496 258.563 110.516 258.965 110.138L257.596 108.68ZM263.98 105.295C264.372 104.906 264.375 104.273 263.986 103.881C263.597 103.489 262.964 103.486 262.572 103.875L263.98 105.295ZM267.438 98.9466C267.053 99.3433 267.063 99.9764 267.46 100.361C267.857 100.745 268.49 100.735 268.874 100.338L267.438 98.9466ZM273.681 95.3036C274.06 94.9018 274.042 94.269 273.64 93.89C273.238 93.511 272.605 93.5295 272.226 93.9312L273.681 95.3036ZM276.97 88.8646C276.594 89.2687 276.616 89.9015 277.02 90.2779C277.424 90.6544 278.057 90.6319 278.434 90.2278L276.97 88.8646ZM283.164 85.1458C283.541 84.7418 283.519 84.109 283.115 83.7324C282.711 83.3558 282.078 83.3779 281.701 83.7819L283.164 85.1458ZM286.457 78.7123C286.077 79.1135 286.095 79.7465 286.496 80.1259C286.897 80.5054 287.53 80.4877 287.91 80.0864L286.457 78.7123ZM292.703 75.0799C293.088 74.6837 293.078 74.0506 292.682 73.6658C292.286 73.2811 291.653 73.2903 291.268 73.6865L292.703 75.0799ZM296.166 68.7347C295.774 69.1234 295.771 69.7566 296.16 70.1489C296.548 70.5413 297.182 70.5442 297.574 70.1555L296.166 68.7347ZM302.551 65.3416C302.953 64.9628 302.971 64.3299 302.592 63.928C302.214 63.5262 301.581 63.5075 301.179 63.8863L302.551 65.3416ZM306.331 59.1695C305.918 59.5362 305.88 60.1682 306.247 60.5813C306.613 60.9943 307.245 61.0319 307.658 60.6652L306.331 59.1695ZM312.896 56.1704C313.321 55.8181 313.38 55.1877 313.028 54.7624C312.676 54.3371 312.045 54.2779 311.62 54.6302L312.896 56.1704ZM317.073 50.2829C316.635 50.6188 316.552 51.2465 316.887 51.6849C317.223 52.1233 317.851 52.2064 318.289 51.8705L317.073 50.2829ZM323.851 47.7859C324.302 47.4683 324.411 46.8445 324.094 46.3927C323.776 45.9409 323.152 45.8322 322.7 46.1498L323.851 47.7859ZM328.51 42.2492C328.045 42.547 327.909 43.1655 328.207 43.6306C328.505 44.0957 329.123 44.2313 329.588 43.9335L328.51 42.2492ZM335.493 40.3352C335.971 40.0584 336.134 39.4466 335.857 38.9687C335.581 38.4908 334.969 38.3277 334.491 38.6045L335.493 40.3352ZM340.591 35.2521C340.101 35.5071 339.911 36.111 340.166 36.6009C340.421 37.0907 341.025 37.2811 341.515 37.026L340.591 35.2521ZM347.698 33.9809C348.198 33.7481 348.415 33.1533 348.183 32.6525C347.95 32.1517 347.355 31.9346 346.854 32.1674L347.698 33.9809ZM353.288 29.3476C352.777 29.5581 352.534 30.1427 352.744 30.6533C352.955 31.1639 353.539 31.4071 354.05 31.1966L353.288 29.3476ZM360.459 28.7128C360.978 28.5242 361.246 27.9504 361.057 27.4314C360.869 26.9123 360.295 26.6445 359.776 26.8331L360.459 28.7128ZM366.371 24.5887C365.844 24.756 365.553 25.3183 365.721 25.8446C365.888 26.371 366.45 26.662 366.977 26.4947L366.371 24.5887ZM373.66 24.5151C374.193 24.3686 374.506 23.8181 374.359 23.2856C374.213 22.7531 373.662 22.4402 373.13 22.5867L373.66 24.5151ZM379.826 20.8764C379.289 21.0034 378.956 21.5421 379.083 22.0796C379.21 22.6171 379.748 22.9498 380.286 22.8228L379.826 20.8764ZM387.057 21.3483C387.598 21.2401 387.949 20.7133 387.841 20.1717C387.733 19.6302 387.206 19.2789 386.665 19.3871L387.057 21.3483ZM393.526 18.1327C392.981 18.2233 392.613 18.7384 392.704 19.2832C392.794 19.828 393.309 20.1962 393.854 20.1056L393.526 18.1327ZM400.669 19.0797C401.217 19.0056 401.6 18.5019 401.526 17.9546C401.452 17.4073 400.949 17.0237 400.401 17.0977L400.669 19.0797ZM407.363 16.2581C406.813 16.3165 406.415 16.8091 406.474 17.3583C406.532 17.9075 407.025 18.3053 407.574 18.2469L407.363 16.2581ZM414.414 17.6114C414.965 17.5675 415.376 17.0856 415.332 16.535C415.288 15.9845 414.806 15.5738 414.255 15.6178L414.414 17.6114ZM421.255 15.1474C420.704 15.1776 420.281 15.6492 420.312 16.2007C420.342 16.7521 420.813 17.1746 421.365 17.1444L421.255 15.1474ZM428.235 16.8469C428.787 16.8292 429.22 16.3674 429.203 15.8154C429.185 15.2634 428.723 14.8302 428.171 14.8479L428.235 16.8469ZM435.157 14.7005C434.605 14.7063 434.162 15.1587 434.167 15.7109C434.173 16.2632 434.626 16.7062 435.178 16.7004L435.157 14.7005ZM11.7363 22.6821C11.7363 23.838 11.7499 24.9968 11.7774 26.1577L13.7768 26.1105C13.7498 24.9653 13.7363 23.8224 13.7363 22.6821H11.7363ZM12.1072 33.1143C12.2718 35.4224 12.492 37.735 12.7695 40.0481L14.7553 39.8099C14.4817 37.5291 14.2645 35.2484 14.1021 32.9721L12.1072 33.1143ZM13.7682 46.9424C14.1565 49.2255 14.6024 51.5051 15.1074 53.7771L17.0598 53.3432C16.5622 51.1043 16.1227 48.8576 15.7399 46.607L13.7682 46.9424ZM16.7928 60.5361C17.4116 62.7698 18.0901 64.9922 18.8298 67.1995L20.7261 66.564C19.9979 64.3909 19.3297 62.2023 18.7202 60.0022L16.7928 60.5361ZM21.2234 73.745C22.0792 75.8997 22.9968 78.0357 23.9775 80.1491L25.7917 79.3072C24.827 77.2285 23.9244 75.1271 23.0822 73.0067L21.2234 73.745ZM27.0941 86.3867C28.1899 88.4288 29.3491 90.4451 30.573 92.4318L32.2758 91.3828C31.0731 89.4304 29.9337 87.4486 28.8564 85.441L27.0941 86.3867ZM34.4108 98.2577C35.7428 100.151 37.1389 102.012 38.6005 103.838L40.1617 102.588C38.7264 100.795 37.3551 98.967 36.0465 97.1069L34.4108 98.2577ZM43.1309 109.147C44.6856 110.857 46.3038 112.529 47.9869 114.161L49.379 112.725C47.7263 111.123 46.1373 109.48 44.6108 107.801L43.1309 109.147ZM53.1468 118.858C54.899 120.355 56.7128 121.81 58.5894 123.222L59.7917 121.624C57.9482 120.237 56.1667 118.807 54.4461 117.337L53.1468 118.858ZM64.2906 127.243C66.2092 128.511 68.1865 129.736 70.2235 130.914L71.2251 129.183C69.2223 128.024 67.2786 126.821 65.3932 125.575L64.2906 127.243ZM76.3531 134.228C78.3988 135.26 80.4991 136.247 82.6549 137.189L83.4557 135.357C81.3334 134.429 79.2663 133.457 77.2536 132.442L76.3531 134.228ZM89.1032 139.806C91.2434 140.609 93.4338 141.37 95.6751 142.086L96.2837 140.181C94.0739 139.475 91.915 138.725 89.8064 137.933L89.1032 139.806ZM102.351 144.044C104.56 144.636 106.815 145.186 109.117 145.693L109.547 143.74C107.275 143.239 105.049 142.696 102.869 142.112L102.351 144.044ZM115.96 147.049C118.208 147.445 120.498 147.802 122.83 148.119L123.099 146.137C120.793 145.824 118.529 145.471 116.307 145.079L115.96 147.049ZM129.71 148.921C131.982 149.143 134.29 149.329 136.637 149.476L136.762 147.48C134.438 147.334 132.153 147.151 129.905 146.93L129.71 148.921ZM143.612 149.797C145.884 149.864 148.19 149.897 150.529 149.894L150.527 147.894C148.208 147.897 145.922 147.864 143.672 147.798L143.612 149.797ZM157.459 149.785C159.754 149.716 162.079 149.614 164.437 149.478L164.322 147.481C161.982 147.616 159.675 147.717 157.399 147.786L157.459 149.785ZM171.323 148.992C172.485 148.895 173.655 148.79 174.832 148.678L174.641 146.687C173.472 146.799 172.311 146.903 171.157 146.999L171.323 148.992ZM174.832 148.678C176.03 148.563 177.214 148.437 178.385 148.301L178.154 146.314C176.997 146.449 175.826 146.573 174.641 146.687L174.832 148.678ZM185.247 147.358C187.616 146.981 189.927 146.558 192.182 146.091L191.777 144.133C189.552 144.593 187.272 145.01 184.932 145.383L185.247 147.358ZM198.983 144.511C201.269 143.92 203.495 143.282 205.665 142.599L205.065 140.692C202.928 141.364 200.735 141.993 198.482 142.575L198.983 144.511ZM212.309 140.309C214.532 139.473 216.694 138.588 218.799 137.658L217.991 135.828C215.92 136.743 213.793 137.614 211.605 138.437L212.309 140.309ZM225.113 134.651C227.212 133.577 229.253 132.457 231.242 131.294L230.232 129.568C228.275 130.712 226.267 131.814 224.202 132.87L225.113 134.651ZM237.176 127.605C239.14 126.31 241.053 124.974 242.921 123.602L241.737 121.99C239.894 123.344 238.009 124.66 236.076 125.935L237.176 127.605ZM248.459 119.33C250.277 117.862 252.055 116.36 253.8 114.83L252.482 113.326C250.755 114.84 248.997 116.325 247.202 117.775L248.459 119.33ZM258.965 110.138C260.661 108.547 262.33 106.931 263.98 105.295L262.572 103.875C260.933 105.499 259.277 107.103 257.596 108.68L258.965 110.138ZM268.874 100.338C270.487 98.6734 272.087 96.9936 273.681 95.3036L272.226 93.9312C270.636 95.6166 269.043 97.2898 267.438 98.9466L268.874 100.338ZM278.434 90.2278C280.009 88.5366 281.581 86.8439 283.164 85.1458L281.701 83.7819C280.119 85.4791 278.541 87.1776 276.97 88.8646L278.434 90.2278ZM287.91 80.0864C289.492 78.4131 291.088 76.7429 292.703 75.0799L291.268 73.6865C289.645 75.3573 288.044 77.034 286.457 78.7123L287.91 80.0864ZM297.574 70.1555C299.206 68.5385 300.863 66.9325 302.551 65.3416L301.179 63.8863C299.478 65.4898 297.809 67.1074 296.166 68.7347L297.574 70.1555ZM307.658 60.6652C309.368 59.1477 311.112 57.6482 312.896 56.1704L311.62 54.6302C309.817 56.1235 308.056 57.6379 306.331 59.1695L307.658 60.6652ZM318.289 51.8705C320.099 50.4842 321.951 49.1216 323.851 47.7859L322.7 46.1498C320.777 47.5018 318.903 48.8807 317.073 50.2829L318.289 51.8705ZM329.588 43.9335C331.507 42.7052 333.473 41.5048 335.493 40.3352L334.491 38.6045C332.445 39.7893 330.453 41.0052 328.51 42.2492L329.588 43.9335ZM341.515 37.026C343.523 35.9801 345.583 34.9643 347.698 33.9809L346.854 32.1674C344.712 33.1635 342.626 34.1925 340.591 35.2521L341.515 37.026ZM354.05 31.1966C356.134 30.3374 358.269 29.5087 360.459 28.7128L359.776 26.8331C357.56 27.6387 355.398 28.4775 353.288 29.3476L354.05 31.1966ZM366.977 26.4947C369.152 25.8031 371.379 25.1426 373.66 24.5151L373.13 22.5867C370.824 23.2212 368.571 23.8891 366.371 24.5887L366.977 26.4947ZM380.286 22.8228C382.494 22.3013 384.75 21.8093 387.057 21.3483L386.665 19.3871C384.335 19.8525 382.057 20.3494 379.826 20.8764L380.286 22.8228ZM393.854 20.1056C396.08 19.7355 398.352 19.3932 400.669 19.0797L400.401 17.0977C398.064 17.4139 395.773 17.7593 393.526 18.1327L393.854 20.1056ZM407.574 18.2469C409.812 18.009 412.092 17.7968 414.414 17.6114L414.255 15.6178C411.916 15.8045 409.618 16.0183 407.363 16.2581L407.574 18.2469ZM421.365 17.1444C423.616 17.0208 425.906 16.9214 428.235 16.8469L428.171 14.8479C425.827 14.9229 423.522 15.023 421.255 15.1474L421.365 17.1444Z" fill="#1FAD58"/>
<path d="M52.482 158.03L58.7066 163.314L63.9906 157.089L57.766 151.805L52.482 158.03ZM271.991 140.089L265.766 134.805L260.482 141.03L266.707 146.314L271.991 140.089ZM58.3178 158.556L266.318 141.556L266.155 139.563L58.1549 156.563L58.3178 158.556Z" fill="#1FAD58"/>
<circle cx="161.236" cy="149.06" r="5.5" fill="white" stroke="#1FAD58" stroke-width="2"/>
<path d="M315.99 6.50262L321.179 12.8063L327.483 7.61677L322.293 1.31313L315.99 6.50262ZM425.483 17.1169L420.293 10.8133L413.99 16.0028L419.179 22.3064L425.483 17.1169ZM321.64 8.05503L419.64 17.5552L419.833 15.5645L321.833 6.06436L321.64 8.05503Z" fill="#1FAD58"/>
<circle cx="418.644" cy="16.032" r="5.5" transform="rotate(19.5472 418.644 16.032)" fill="white" stroke="#1FAD58" stroke-width="2"/>
<path d="M8.37286 113.822L14.4985 108.423L9.09996 102.298L2.97437 107.696L8.37286 113.822ZM13.503 32.5131L7.37736 37.9116L12.7759 44.0372L18.9014 38.6387L13.503 32.5131ZM9.73443 108.123L14.1374 38.3381L12.1414 38.2122L7.7384 107.997L9.73443 108.123Z" fill="#1FAD58"/>
<circle cx="12.6041" cy="38.299" r="5.5" transform="rotate(-63.0635 12.6041 38.299)" fill="white" stroke="#1FAD58" stroke-width="2"/>
</g>
<defs>
<clipPath id="clip0_203_16">
<rect width="444" height="165" fill="white"/>
</clipPath>
</defs>
</svg>
