<svg width="341" height="246" viewBox="0 0 341 246" fill="none" xmlns="http://www.w3.org/2000/svg">
<mask id="path-1-inside-1_440_741" fill="white">
<path fill-rule="evenodd" clip-rule="evenodd" d="M34.2651 195L0 245.958H164.042H328.084L293.819 195H34.2651ZM49.7308 172H278.353L253.473 135H74.6103L49.7308 172ZM90.0759 112H238.008L213.801 76H114.283L90.0759 112ZM129.749 53L164.042 2L198.335 53H129.749Z"/>
</mask>
<path d="M0 245.958L-1.65968 244.842L-3.75494 247.958H0V245.958ZM34.2651 195V193H33.1999L32.6055 193.884L34.2651 195ZM328.084 245.958V247.958H331.839L329.743 244.842L328.084 245.958ZM293.819 195L295.478 193.884L294.884 193H293.819V195ZM278.353 172V174H282.108L280.013 170.884L278.353 172ZM49.7308 172L48.0711 170.884L45.9758 174H49.7308V172ZM253.473 135L255.133 133.884L254.539 133H253.473V135ZM74.6103 135V133H73.545L72.9506 133.884L74.6103 135ZM238.008 112V114H241.763L239.668 110.884L238.008 112ZM90.0759 112L88.4162 110.884L86.3209 114H90.0759V112ZM213.801 76L215.46 74.884L214.866 74H213.801V76ZM114.283 76V74H113.218L112.623 74.884L114.283 76ZM129.749 53L128.089 51.884L125.994 55H129.749V53ZM164.042 2L165.702 0.883999L164.042 -1.58423L162.382 0.884L164.042 2ZM198.335 53V55H202.09L199.995 51.884L198.335 53ZM1.65968 247.074L35.9248 196.116L32.6055 193.884L-1.65968 244.842L1.65968 247.074ZM164.042 243.958H0V247.958H164.042V243.958ZM328.084 243.958H164.042V247.958H328.084V243.958ZM292.159 196.116L326.424 247.074L329.743 244.842L295.478 193.884L292.159 196.116ZM34.2651 197H293.819V193H34.2651V197ZM278.353 170H49.7308V174H278.353V170ZM251.814 136.116L276.693 173.116L280.013 170.884L255.133 133.884L251.814 136.116ZM74.6103 137H253.473V133H74.6103V137ZM51.3905 173.116L76.2699 136.116L72.9506 133.884L48.0711 170.884L51.3905 173.116ZM238.008 110H90.0759V114H238.008V110ZM212.141 77.116L236.348 113.116L239.668 110.884L215.46 74.884L212.141 77.116ZM213.801 74H114.283V78H213.801V74ZM91.7356 113.116L115.943 77.116L112.623 74.884L88.4162 110.884L91.7356 113.116ZM131.408 54.116L165.702 3.116L162.382 0.884L128.089 51.884L131.408 54.116ZM162.382 3.116L196.676 54.116L199.995 51.884L165.702 0.883999L162.382 3.116ZM129.749 55H198.335V51H129.749V55Z" fill="#F2EFE6" mask="url(#path-1-inside-1_440_741)"/>
<path d="M175.5 0L176.409 11.5112L185.924 4.96829L175.5 0ZM179.775 7.98094C202.233 40.8194 291.679 172.401 338.673 241.562L340.327 240.438C293.334 171.279 203.886 39.6936 181.426 6.85194L179.775 7.98094Z" fill="#F2EFE6"/>
</svg>
