<svg width="271" height="202" viewBox="0 0 271 202" fill="none" xmlns="http://www.w3.org/2000/svg">
<path d="M269.298 25.693C269.298 27.1186 268.61 28.6129 267.082 30.1708C265.551 31.7321 263.241 33.2862 260.178 34.797C254.056 37.8168 245.133 40.5642 234.024 42.8817C211.824 47.5135 181.109 50.386 147.149 50.386C113.19 50.386 82.4742 47.5135 60.2738 42.8817C49.1654 40.5642 40.242 37.8168 34.12 34.797C31.0571 33.2862 28.7472 31.7321 27.2159 30.1708C25.6879 28.6129 25 27.1186 25 25.693C25 24.2674 25.6879 22.7731 27.2159 21.2152C28.7472 19.6539 31.0571 18.0998 34.12 16.5889C40.242 13.5692 49.1654 10.8218 60.2738 8.50422C82.4742 3.87249 113.19 1 147.149 1C181.109 1 211.824 3.87249 234.024 8.50422C245.133 10.8218 254.056 13.5692 260.178 16.5889C263.241 18.0998 265.551 19.6539 267.082 21.2152C268.61 22.7731 269.298 24.2674 269.298 25.693Z" stroke="#F2EFE6" stroke-width="2"/>
<path d="M269.298 55.8159C269.298 57.2415 268.61 58.7358 267.082 60.2937C265.551 61.855 263.241 63.4091 260.178 64.9199C254.056 67.9397 245.133 70.6871 234.024 73.0047C211.824 77.6364 181.108 80.5089 147.149 80.5089C113.19 80.5089 82.4739 77.6364 60.2735 73.0047C49.1651 70.6871 40.2418 67.9397 34.1198 64.9199C31.0569 63.4091 28.7469 61.855 27.2156 60.2937C25.6876 58.7358 24.9998 57.2415 24.9998 55.8159C24.9998 54.3903 25.6876 52.896 27.2156 51.3381C28.7469 49.7768 31.0569 48.2227 34.1198 46.7119C40.2418 43.6921 49.1651 40.9447 60.2735 38.6271C82.4739 33.9954 113.19 31.1229 147.149 31.1229C181.108 31.1229 211.824 33.9954 234.024 38.6271C245.133 40.9447 254.056 43.6921 260.178 46.7119C263.241 48.2227 265.551 49.7768 267.082 51.3381C268.61 52.896 269.298 54.3903 269.298 55.8159Z" stroke="#F2EFE6" stroke-width="2"/>
<path d="M269.298 85.9386C269.298 87.3642 268.61 88.8585 267.082 90.4164C265.551 91.9777 263.241 93.5318 260.178 95.0426C254.056 98.0624 245.133 100.81 234.024 103.127C211.824 107.759 181.108 110.632 147.149 110.632C113.19 110.632 82.4739 107.759 60.2735 103.127C49.1651 100.81 40.2418 98.0624 34.1198 95.0426C31.0569 93.5318 28.7469 91.9777 27.2156 90.4164C25.6876 88.8585 24.9998 87.3642 24.9998 85.9386C24.9998 84.513 25.6876 83.0187 27.2156 81.4608C28.7469 79.8995 31.0569 78.3454 34.1198 76.8346C40.2418 73.8148 49.1651 71.0674 60.2735 68.7498C82.4739 64.1181 113.19 61.2456 147.149 61.2456C181.108 61.2456 211.824 64.1181 234.024 68.7498C245.133 71.0674 254.056 73.8148 260.178 76.8346C263.241 78.3454 265.551 79.8995 267.082 81.4608C268.61 83.0187 269.298 84.513 269.298 85.9386Z" stroke="#F2EFE6" stroke-width="2"/>
<path d="M269.298 116.061C269.298 117.487 268.61 118.981 267.082 120.539C265.551 122.1 263.241 123.655 260.178 125.165C254.056 128.185 245.133 130.933 234.024 133.25C211.824 137.882 181.108 140.754 147.149 140.754C113.19 140.754 82.4739 137.882 60.2735 133.25C49.1651 130.933 40.2418 128.185 34.1198 125.165C31.0569 123.655 28.7469 122.1 27.2156 120.539C25.6876 118.981 24.9998 117.487 24.9998 116.061C24.9998 114.636 25.6876 113.141 27.2156 111.584C28.7469 110.022 31.0569 108.468 34.1198 106.957C40.2418 103.938 49.1651 101.19 60.2735 98.8726C82.4739 94.2409 113.19 91.3684 147.149 91.3684C181.108 91.3684 211.824 94.2409 234.024 98.8726C245.133 101.19 254.056 103.938 260.178 106.957C263.241 108.468 265.551 110.022 267.082 111.584C268.61 113.141 269.298 114.636 269.298 116.061Z" stroke="#F2EFE6" stroke-width="2"/>
<path d="M269.298 146.184C269.298 147.61 268.61 149.104 267.082 150.662C265.551 152.223 263.241 153.777 260.178 155.288C254.056 158.308 245.133 161.055 234.024 163.373C211.824 168.005 181.108 170.877 147.149 170.877C113.19 170.877 82.4739 168.005 60.2735 163.373C49.1651 161.055 40.2418 158.308 34.1198 155.288C31.0569 153.777 28.7469 152.223 27.2156 150.662C25.6876 149.104 24.9998 147.61 24.9998 146.184C24.9998 144.759 25.6876 143.264 27.2156 141.706C28.7469 140.145 31.0569 138.591 34.1198 137.08C40.2418 134.06 49.1651 131.313 60.2735 128.995C82.4739 124.364 113.19 121.491 147.149 121.491C181.108 121.491 211.824 124.364 234.024 128.995C245.133 131.313 254.056 134.06 260.178 137.08C263.241 138.591 265.551 140.145 267.082 141.706C268.61 143.264 269.298 144.759 269.298 146.184Z" stroke="#F2EFE6" stroke-width="2"/>
<ellipse cx="147.149" cy="176.307" rx="123.149" ry="25.693" fill="#F2EFE6"/>
<path d="M10.1094 187.367C10.1094 187.969 10.0117 188.504 9.81641 188.973C9.61849 189.439 9.34896 189.805 9.00781 190.07C8.66667 190.336 8.27995 190.469 7.84766 190.469C7.51432 190.469 7.20833 190.393 6.92969 190.242C6.64844 190.089 6.41536 189.88 6.23047 189.617C6.04297 189.354 5.92318 189.06 5.87109 188.734L5.81641 188.734C5.73047 189.161 5.52344 189.508 5.19531 189.773C4.86458 190.039 4.48047 190.172 4.04297 190.172C3.62891 190.172 3.26042 190.051 2.9375 189.809C2.61198 189.566 2.35677 189.234 2.17187 188.812C1.98437 188.388 1.89062 187.906 1.89062 187.367C1.89062 186.828 1.98437 186.348 2.17187 185.926C2.35937 185.501 2.61588 185.168 2.94141 184.926C3.26432 184.684 3.63151 184.561 4.04297 184.559C4.48307 184.561 4.86719 184.697 5.19531 184.965C5.52344 185.233 5.73047 185.577 5.81641 185.996L5.87109 185.996C5.92318 185.676 6.04297 185.385 6.23047 185.125C6.41536 184.862 6.64844 184.654 6.92969 184.5C7.20833 184.344 7.51432 184.264 7.84766 184.262C8.27995 184.264 8.66667 184.398 9.00781 184.664C9.34896 184.93 9.61849 185.297 9.81641 185.766C10.0117 186.232 10.1094 186.766 10.1094 187.367ZM8.86719 187.367C8.86719 187.099 8.81901 186.865 8.72266 186.664C8.6237 186.464 8.48828 186.307 8.31641 186.195C8.14193 186.081 7.94141 186.023 7.71484 186.023C7.48307 186.023 7.27865 186.082 7.10156 186.199C6.92187 186.316 6.78125 186.475 6.67969 186.676C6.57552 186.876 6.52344 187.107 6.52344 187.367C6.52344 187.625 6.57552 187.855 6.67969 188.059C6.78125 188.262 6.92187 188.422 7.10156 188.539C7.27865 188.654 7.48307 188.711 7.71484 188.711C7.94141 188.711 8.14193 188.655 8.31641 188.543C8.48828 188.431 8.6237 188.273 8.72266 188.07C8.81901 187.867 8.86719 187.633 8.86719 187.367ZM5.29297 187.367C5.29297 187.143 5.2474 186.944 5.15625 186.77C5.0651 186.595 4.9388 186.458 4.77734 186.359C4.61589 186.26 4.42969 186.211 4.21875 186.211C4.01042 186.211 3.82812 186.26 3.67187 186.359C3.51302 186.458 3.38932 186.594 3.30078 186.766C3.20964 186.937 3.16406 187.138 3.16406 187.367C3.16406 187.594 3.20964 187.794 3.30078 187.969C3.38932 188.143 3.51302 188.28 3.67187 188.379C3.82812 188.475 4.01042 188.523 4.21875 188.523C4.42969 188.523 4.61589 188.474 4.77734 188.375C4.9388 188.276 5.0651 188.139 5.15625 187.965C5.2474 187.79 5.29297 187.591 5.29297 187.367ZM1.89062 180.185C1.89062 179.773 1.95963 179.377 2.09766 178.997C2.23568 178.614 2.45573 178.273 2.75781 177.974C3.0599 177.672 3.46094 177.433 3.96094 177.259C4.45833 177.082 5.06901 176.992 5.79297 176.989C6.47266 176.989 7.07943 177.066 7.61328 177.22C8.14453 177.371 8.59635 177.588 8.96875 177.872C9.34115 178.156 9.625 178.498 9.82031 178.899C10.013 179.3 10.1094 179.748 10.1094 180.243C10.1094 180.777 10.0065 181.248 9.80078 181.657C9.59245 182.066 9.3099 182.396 8.95312 182.646C8.59375 182.893 8.1901 183.043 7.74219 183.095L7.74219 181.427C8.03385 181.362 8.26042 181.225 8.42187 181.017C8.58073 180.808 8.66016 180.55 8.66016 180.243C8.66016 179.722 8.43359 179.326 7.98047 179.056C7.52474 178.785 6.90104 178.648 6.10937 178.646L6.10937 178.7C6.34375 178.82 6.54557 178.981 6.71484 179.185C6.88151 179.388 7.01042 179.621 7.10156 179.884C7.19271 180.144 7.23828 180.422 7.23828 180.716C7.23828 181.187 7.1276 181.608 6.90625 181.978C6.6849 182.347 6.38021 182.639 5.99219 182.853C5.60417 183.066 5.16146 183.173 4.66406 183.173C4.1276 183.175 3.64974 183.052 3.23047 182.802C2.8112 182.552 2.48307 182.203 2.24609 181.755C2.00651 181.304 1.88802 180.781 1.89062 180.185ZM3.21875 180.173C3.21875 180.436 3.28125 180.67 3.40625 180.876C3.53125 181.079 3.69922 181.241 3.91016 181.36C4.12109 181.478 4.35677 181.535 4.61719 181.532C4.88021 181.532 5.11719 181.475 5.32812 181.36C5.53646 181.243 5.70312 181.084 5.82812 180.884C5.95052 180.681 6.01172 180.449 6.01172 180.188C6.01172 179.993 5.97526 179.812 5.90234 179.646C5.82943 179.479 5.72917 179.334 5.60156 179.212C5.47135 179.087 5.32161 178.989 5.15234 178.919C4.98307 178.849 4.80338 178.813 4.61328 178.813C4.36068 178.816 4.12891 178.876 3.91797 178.993C3.70703 179.11 3.53776 179.272 3.41016 179.478C3.28255 179.683 3.21875 179.915 3.21875 180.173ZM8.5 171.438L8.07812 171.438C7.75781 171.438 7.46354 171.371 7.19531 171.235C6.92448 171.097 6.70833 170.898 6.54687 170.638C6.38281 170.375 6.30078 170.054 6.30078 169.677C6.30078 169.294 6.38151 168.972 6.54297 168.712C6.70443 168.449 6.92057 168.251 7.19141 168.118C7.45963 167.983 7.75521 167.915 8.07812 167.915L8.5 167.915C8.82031 167.915 9.11588 167.983 9.38672 168.118C9.65495 168.254 9.86979 168.453 10.0312 168.716C10.1953 168.979 10.2773 169.299 10.2773 169.677C10.2773 170.06 10.1953 170.381 10.0312 170.642C9.86979 170.902 9.65495 171.1 9.38672 171.235C9.11588 171.371 8.82031 171.438 8.5 171.438ZM8.07812 170.302L8.5 170.302C8.68489 170.302 8.85937 170.257 9.02344 170.169C9.1875 170.078 9.26953 169.914 9.26953 169.677C9.26953 169.44 9.1888 169.278 9.02734 169.192C8.86588 169.104 8.6901 169.06 8.5 169.06L8.07812 169.06C7.88802 169.06 7.71094 169.101 7.54687 169.185C7.38281 169.268 7.30078 169.432 7.30078 169.677C7.30078 169.911 7.38281 170.074 7.54687 170.165C7.71094 170.256 7.88802 170.302 8.07812 170.302ZM3.92187 175.544L3.5 175.544C3.17708 175.544 2.88151 175.475 2.61328 175.337C2.34245 175.199 2.1263 175 1.96484 174.739C1.80338 174.476 1.72266 174.159 1.72266 173.786C1.72266 173.401 1.80338 173.078 1.96484 172.817C2.1263 172.557 2.34245 172.359 2.61328 172.224C2.88151 172.088 3.17708 172.021 3.5 172.021L3.92187 172.021C4.24479 172.021 4.54036 172.09 4.80859 172.228C5.07682 172.363 5.29167 172.562 5.45312 172.825C5.61198 173.086 5.69141 173.406 5.69141 173.786C5.69141 174.166 5.61068 174.488 5.44922 174.751C5.28516 175.011 5.07031 175.209 4.80469 175.345C4.53646 175.478 4.24219 175.544 3.92187 175.544ZM3.5 174.399L3.92187 174.399C4.11198 174.399 4.28776 174.355 4.44922 174.267C4.61068 174.175 4.69141 174.015 4.69141 173.786C4.69141 173.547 4.61068 173.384 4.44922 173.298C4.28776 173.209 4.11198 173.165 3.92187 173.165L3.5 173.165C3.3099 173.165 3.13281 173.207 2.96875 173.29C2.80469 173.373 2.72266 173.539 2.72266 173.786C2.72266 174.018 2.80599 174.178 2.97266 174.267C3.13932 174.355 3.3151 174.399 3.5 174.399ZM10 175.028L2 169.528L2 168.505L10 174.005L10 175.028Z" fill="#F2EFE6"/>
<path d="M5.00001 163L5 21L9.5 21L0.5 21" stroke="#F2EFE6" stroke-width="2"/>
</svg>
