<svg width="462" height="273" viewBox="0 0 462 273" fill="none" xmlns="http://www.w3.org/2000/svg">
<rect x="319" y="181" width="27" height="51" transform="rotate(90 319 181)" fill="#1FAD58"/>
<rect x="252" y="258" width="15" height="96" transform="rotate(90 252 258)" fill="#1FAD58"/>
<rect x="337" y="117" width="27" height="51" transform="rotate(90 337 117)" fill="#1FAD58"/>
<rect x="85" y="191" width="27" height="37" transform="rotate(90 85 191)" fill="#1FAD58"/>
<rect x="425" y="79" width="21" height="79" transform="rotate(-180 425 79)" fill="#1FAD58"/>
<rect x="310" y="68" width="27" height="191" fill="black"/>
<rect x="425" y="68" width="27" height="115" transform="rotate(90 425 68)" fill="black"/>
<path d="M168 246L168 273L42 273L42 246L168 246Z" fill="black"/>
<path d="M66 273L39 273L39 184L66 184L66 273Z" fill="black"/>
<path d="M66 164L66 191L3.21972e-07 191L0 164L66 164Z" fill="black"/>
<path d="M337 246L337 273L248 273L248 246L337 246Z" fill="black"/>
<circle cx="136.5" cy="226.5" r="19.5" fill="#1FAD58"/>
<path d="M461.5 11L430 26.5L438.5 12.5L430 0L461.5 11Z" fill="#1FAD58"/>
</svg>
