<svg width="24" height="24" viewBox="0 0 24 24" fill="none" xmlns="http://www.w3.org/2000/svg">
<path d="M22.004 2.5H2.00403C1.45174 2.5 1.00403 2.94772 1.00403 3.5V17.5C1.00403 18.0523 1.45174 18.5 2.00403 18.5H22.004C22.5563 18.5 23.004 18.0523 23.004 17.5V3.5C23.004 2.94772 22.5563 2.5 22.004 2.5Z" fill="#FFFCF2" stroke="#1FAD58" stroke-width="1.5" stroke-linecap="round" stroke-linejoin="round"/>
<path d="M3.5 11.5L5.389 9.615C5.48187 9.52203 5.59216 9.44827 5.71356 9.39794C5.83496 9.34762 5.96508 9.32172 6.0965 9.32172C6.22792 9.32172 6.35804 9.34762 6.47944 9.39794C6.60084 9.44827 6.71113 9.52203 6.804 9.615L7.982 10.793C8.16953 10.9805 8.42384 11.0858 8.689 11.0858C8.95416 11.0858 9.20847 10.9805 9.396 10.793L12.196 7.993C12.3835 7.80553 12.6378 7.70022 12.903 7.70022C13.1682 7.70022 13.4225 7.80553 13.61 7.993L15.761 10.144C15.9485 10.3315 16.2028 10.4368 16.468 10.4368C16.7332 10.4368 16.9875 10.3315 17.175 10.144L21 6.315" stroke="#1FAD58" stroke-width="1.5" stroke-linecap="round" stroke-linejoin="round"/>
<path d="M18.004 13.5H21.004" stroke="#1FAD58" stroke-width="1.5" stroke-linecap="round" stroke-linejoin="round"/>
<path d="M21.004 15.5H16.004" stroke="#1FAD58" stroke-width="1.5" stroke-linecap="round" stroke-linejoin="round"/>
</svg>
