<svg width="24" height="24" viewBox="0 0 24 24" fill="none" xmlns="http://www.w3.org/2000/svg">
<path d="M20.5489 18H1.98041C1.83138 18 1.68431 17.9567 1.55038 17.8733C1.41645 17.79 1.29919 17.6688 1.2075 17.519C1.11581 17.3692 1.05212 17.1948 1.02125 17.0089C0.990391 16.823 0.993173 16.6306 1.02939 16.4462L2.50004 8.94625C2.55316 8.67594 2.67559 8.43601 2.8479 8.26457C3.0202 8.09313 3.2325 8.00001 3.45107 8H20.5489C20.7675 8.00001 20.9798 8.09313 21.1521 8.26457C21.3244 8.43601 21.4468 8.67594 21.5 8.94625L22.9706 16.4462C23.0068 16.6306 23.0096 16.823 22.9787 17.0089C22.9479 17.1948 22.8842 17.3692 22.7925 17.519C22.7008 17.6688 22.5835 17.79 22.4496 17.8733C22.3157 17.9567 22.1686 18 22.0196 18H20.8244" stroke="#1FAD58" stroke-width="1.5" stroke-linecap="round" stroke-linejoin="round"/>
<path d="M3.60999 14.75H4.60999" stroke="#1FAD58" stroke-width="1.5" stroke-linecap="round" stroke-linejoin="round"/>
<path d="M5.60999 12.75H6.60999" stroke="#1FAD58" stroke-width="1.5" stroke-linecap="round" stroke-linejoin="round"/>
<path d="M8.60999 12.75H9.60999" stroke="#1FAD58" stroke-width="1.5" stroke-linecap="round" stroke-linejoin="round"/>
<path d="M11.61 12.75H12.61" stroke="#1FAD58" stroke-width="1.5" stroke-linecap="round" stroke-linejoin="round"/>
<path d="M14.61 12.75H15.61" stroke="#1FAD58" stroke-width="1.5" stroke-linecap="round" stroke-linejoin="round"/>
<path d="M17.61 12.75H18.61" stroke="#1FAD58" stroke-width="1.5" stroke-linecap="round" stroke-linejoin="round"/>
<path d="M5.60999 10.75H6.60999" stroke="#1FAD58" stroke-width="1.5" stroke-linecap="round" stroke-linejoin="round"/>
<path d="M8.60999 10.75H9.60999" stroke="#1FAD58" stroke-width="1.5" stroke-linecap="round" stroke-linejoin="round"/>
<path d="M11.61 10.75H12.61" stroke="#1FAD58" stroke-width="1.5" stroke-linecap="round" stroke-linejoin="round"/>
<path d="M14.61 10.75H15.61" stroke="#1FAD58" stroke-width="1.5" stroke-linecap="round" stroke-linejoin="round"/>
<path d="M17.61 10.75H18.61" stroke="#1FAD58" stroke-width="1.5" stroke-linecap="round" stroke-linejoin="round"/>
<path d="M6.60999 14.75H17.61" stroke="#1FAD58" stroke-width="1.5" stroke-linecap="round" stroke-linejoin="round"/>
<path d="M19.61 14.75H20.61" stroke="#1FAD58" stroke-width="1.5" stroke-linecap="round" stroke-linejoin="round"/>
</svg>
