<svg width="200" height="180" viewBox="0 0 200 180" fill="none" xmlns="http://www.w3.org/2000/svg">
<g clip-path="url(#clip0_510_2341)">
<rect x="47.6667" y="131.667" width="102.667" height="32.2667" fill="#1FAD58"/>
<rect width="102" height="42" transform="matrix(1 0 0 -1 48 132)" fill="#C8C2AD"/>
<path fill-rule="evenodd" clip-rule="evenodd" d="M108.501 88.6668H118.619C118.619 78.1365 110.044 69.6001 99.4657 69.6001C88.8874 69.6001 80.312 78.1365 80.312 88.6668H90.4307C90.6069 83.8506 94.5846 80.0001 99.4657 80.0001C104.347 80.0001 108.325 83.8506 108.501 88.6668Z" fill="#1FAD58"/>
<path d="M47.8982 131.667L151.034 131.667" stroke="black" stroke-width="3" stroke-linecap="round" stroke-linejoin="round"/>
<path d="M147.166 89.4434H51.7658C49.2568 89.4434 47.2229 91.468 47.2229 93.9656V159.966C47.2229 162.463 49.2568 164.488 51.7658 164.488H147.166C149.675 164.488 151.709 162.463 151.709 159.966V93.9656C151.709 91.468 149.675 89.4434 147.166 89.4434Z" stroke="black" stroke-width="3" stroke-linecap="round" stroke-linejoin="round"/>
<path d="M106.28 143.367C106.28 145.166 105.562 146.891 104.284 148.163C103.006 149.435 101.273 150.15 99.4657 150.15C97.6584 150.15 95.9252 149.435 94.6472 148.163C93.3693 146.891 92.6514 145.166 92.6514 143.367V132H99.4657H106.28V143.367Z" fill="#F3EFE2" stroke="black" stroke-width="3" stroke-linecap="round" stroke-linejoin="round"/>
<path d="M81.2942 87.9722C81.2942 83.1747 83.2087 78.5737 86.6165 75.1814C90.0243 71.7891 94.6463 69.8833 99.4657 69.8833C104.285 69.8833 108.907 71.7891 112.315 75.1814C115.723 78.5737 117.637 83.1747 117.637 87.9722" stroke="black" stroke-width="3" stroke-linecap="round" stroke-linejoin="round"/>
<path d="M90.6255 87.6667C90.6255 85.3328 91.5569 83.0945 93.2147 81.4442C94.8726 79.7938 97.1211 78.8667 99.4657 78.8667C101.81 78.8667 104.059 79.7938 105.717 81.4442C107.374 83.0945 108.306 85.3328 108.306 87.6667" stroke="black" stroke-width="3" stroke-linecap="round" stroke-linejoin="round"/>
<path d="M71.4719 90.6001V130.933" stroke="black" stroke-width="3"/>
<path d="M127.46 90.6001V130.933" stroke="black" stroke-width="3"/>
<path d="M99.4658 91L99.4658 132" stroke="black" stroke-width="3" stroke-linecap="round" stroke-linejoin="round"/>
<path d="M128.196 102.333H99.4658" stroke="black" stroke-width="3"/>
<path d="M98.7291 117H69.9985" stroke="black" stroke-width="3"/>
<path d="M32 165L158 165" stroke="black" stroke-width="3" stroke-linecap="round"/>
<path d="M164 165H174" stroke="black" stroke-width="3" stroke-linecap="round"/>
<path d="M180.204 54.7654C183.163 54.9049 186.029 57.017 187.092 58.0556C185.097 61.0505 179.251 66.3226 171.825 63.4519C164.399 60.5811 162.609 53.1944 162.643 49.8599C163.33 49.707 165.577 49.7388 169.072 51.0898C172.567 52.4408 174.838 54.5742 175.537 55.4721C175.86 55.1784 177.245 54.6259 180.204 54.7654Z" fill="#1FAD58"/>
<path fill-rule="evenodd" clip-rule="evenodd" d="M176.005 54.3974C171.481 55.2889 167.497 58.4107 165.712 63.0303C163.926 67.65 164.774 72.6392 167.522 76.3424C172.047 75.451 176.03 72.3292 177.816 67.7095C179.602 63.0898 178.754 58.1006 176.005 54.3974Z" fill="#1FAD58"/>
<path d="M171.385 64.5895C178.548 67.3582 186.599 63.7964 189.368 56.6339C192.136 49.4714 188.575 41.4205 181.412 38.6517C174.249 35.8829 166.199 39.4447 163.43 46.6073C160.661 53.7698 164.223 61.8207 171.385 64.5895Z" stroke="black" stroke-width="3" stroke-linecap="round" stroke-linejoin="round"/>
<path d="M172.954 81.0966C180.117 83.8654 188.168 80.3035 190.937 73.141C193.705 65.9785 190.144 57.9276 182.981 55.1588C175.819 52.39 167.768 55.9519 164.999 63.1144C162.23 70.2769 165.792 78.3278 172.954 81.0966Z" stroke="black" stroke-width="3" stroke-linecap="round" stroke-linejoin="round"/>
<path d="M159.121 75.7491C166.284 78.5179 174.335 74.9561 177.103 67.7936C179.872 60.631 176.31 52.5801 169.148 49.8114C161.985 47.0426 153.934 50.6044 151.166 57.7669C148.397 64.9294 151.959 72.9803 159.121 75.7491Z" stroke="black" stroke-width="3" stroke-linecap="round" stroke-linejoin="round"/>
<g clip-path="url(#clip1_510_2341)">
<rect x="5.22765" y="71.3027" width="12" height="12" transform="rotate(-60.3629 5.22765 71.3027)" fill="#1FAD58" stroke="#1B1919" stroke-width="3"/>
<rect x="20.8729" y="80.204" width="12" height="12" transform="rotate(-60.3629 20.8729 80.204)" stroke="#1B1919" stroke-width="3"/>
<rect x="14.1288" y="55.6575" width="12" height="12" transform="rotate(-60.3629 14.1288 55.6575)" stroke="#1B1919" stroke-width="3"/>
<rect x="29.7738" y="64.5587" width="12" height="12" transform="rotate(-60.3629 29.7738 64.5587)" fill="#1FAD58" stroke="#1B1919" stroke-width="3"/>
</g>
<path d="M81.4862 38.1399L74.5791 38.9508L81.5243 7.22897L89.8306 6.2538L103.919 35.5062L97.0121 36.3171L86.6144 13.694L86.3762 13.7219L81.4862 38.1399ZM79.6476 26.2074L95.9625 24.292L96.5532 29.3235L80.2383 31.2388L79.6476 26.2074Z" fill="black"/>
<path d="M113.076 34.8633C111.947 34.9958 110.89 34.8977 109.905 34.5688C108.919 34.2319 108.101 33.6777 107.45 32.9062C106.799 32.1266 106.403 31.1359 106.262 29.9342C106.153 29.0086 106.236 28.2086 106.511 27.5343C106.786 26.86 107.22 26.2822 107.814 25.8009C108.408 25.3196 109.129 24.9098 109.979 24.5713C110.828 24.2329 111.773 23.9368 112.813 23.683C113.845 23.4301 114.717 23.2125 115.428 23.0302C116.147 22.847 116.685 22.6274 117.042 22.3715C117.399 22.1156 117.55 21.7522 117.494 21.2813L117.443 20.8428C117.293 19.568 116.794 18.6101 115.945 17.9689C115.103 17.3187 113.972 17.077 112.551 17.2438C111.203 17.402 110.138 17.8276 109.355 18.5204C108.58 19.2122 108.069 19.9801 107.822 20.824L105.677 20.3227C105.979 19.2501 106.468 18.3654 107.143 17.6688C107.818 16.964 108.602 16.4233 109.496 16.0467C110.39 15.6619 111.311 15.4138 112.261 15.3023C112.976 15.2184 113.73 15.2245 114.523 15.3207C115.324 15.416 116.085 15.6559 116.805 16.0405C117.524 16.4171 118.139 16.9911 118.649 17.7625C119.159 18.5259 119.487 19.5327 119.634 20.7832L121.125 33.4862L118.957 33.7407L118.61 30.7811L118.476 30.7969C118.281 31.3795 117.958 31.9607 117.507 32.5404C117.057 33.1201 116.466 33.6217 115.733 34.0451C115.001 34.4686 114.115 34.7413 113.076 34.8633ZM113.135 32.8438C114.288 32.7084 115.257 32.3354 116.041 31.7247C116.826 31.1141 117.396 30.3598 117.751 29.462C118.114 28.5551 118.235 27.5901 118.115 26.5671L117.798 23.8633C117.653 24.0366 117.398 24.2066 117.03 24.3732C116.671 24.5388 116.249 24.6994 115.766 24.855C115.289 25.0015 114.811 25.1358 114.331 25.258C113.852 25.3802 113.42 25.4885 113.036 25.5829C111.996 25.8368 111.118 26.1456 110.404 26.5093C109.689 26.8731 109.161 27.3219 108.821 27.8558C108.479 28.3816 108.353 29.022 108.441 29.7771C108.575 30.9139 109.084 31.7472 109.969 32.2771C110.854 32.7988 111.909 32.9877 113.135 32.8438Z" fill="black"/>
</g>
<defs>
<clipPath id="clip0_510_2341">
<rect width="200" height="180" fill="white"/>
</clipPath>
<clipPath id="clip1_510_2341">
<rect width="46.669" height="46.6693" fill="white" transform="translate(-3 49.364) rotate(-15.3629)"/>
</clipPath>
</defs>
</svg>
